<svg preserveAspectRatio="xMidYMid meet" width="14" height="14" overflow="visible" viewBox="0 0 13.9 13.9" fill="none" xmlns="http://www.w3.org/2000/svg">
<g id="color-picker--color-colors-design-dropper-eye-eyedrop-eyedropper-painting-picker">
<path id="Vector" d="M12.3663 1.53378C12.0416 1.20623 11.6553 0.946223 11.2296 0.768788C10.8039 0.591354 10.3472 0.5 9.88599 0.5C9.42479 0.5 8.96816 0.591354 8.54246 0.768788C8.11676 0.946223 7.73042 1.20623 7.40575 1.53378L2.85205 6.08748C2.40087 6.53793 2.10627 7.12134 2.01161 7.75181C1.91695 8.38229 2.02724 9.0265 2.32624 9.58958L0.788493 11.1273C0.603715 11.3132 0.5 11.5647 0.5 11.8268C0.5 12.0888 0.603715 12.3403 0.788493 12.5262L1.37383 13.1115C1.55971 13.2963 1.81116 13.4 2.07325 13.4C2.33535 13.4 2.5868 13.2963 2.77268 13.1115L4.31042 11.5738C4.8735 11.8728 5.51771 11.9831 6.14818 11.8884C6.77865 11.7937 7.36207 11.4991 7.81251 11.048L12.3663 6.49425C12.6938 6.16958 12.9538 5.78323 13.1313 5.35753C13.3087 4.93183 13.4 4.4752 13.4 4.01401C13.4 3.55281 13.3087 3.09619 13.1313 2.67049C12.9538 2.24479 12.6938 1.85845 12.3663 1.53378Z" stroke="#FFFFFF" stroke-linecap="round" stroke-linejoin="round"/>
<path id="Vector_2" d="M4.46912 1.49414L12.4059 9.43088" stroke="#FFFFFF" stroke-linecap="round" stroke-linejoin="round"/>
</g>
</svg>
