<svg preserveAspectRatio="none" width="100%" height="100%" overflow="visible" style="display: block;" viewBox="0 0 15.2143 16.3571" fill="none" xmlns="http://www.w3.org/2000/svg">
<g id="recycle-bin-2--remove-delete-empty-bin-trash-garbage">
<path id="Vector" d="M0.75 4.17857H14.4643" stroke="#000529" stroke-width="1.5" stroke-linecap="round" stroke-linejoin="round"/>
<path id="Vector_2" d="M2.46429 4.17857H12.75V14.4643C12.75 14.7674 12.6295 15.0581 12.4153 15.2724C12.201 15.4867 11.9102 15.6071 11.6071 15.6071H3.60714C3.30403 15.6071 3.01335 15.4867 2.79902 15.2724C2.5847 15.0581 2.46429 14.7674 2.46429 14.4643V4.17857Z" stroke="#000529" stroke-width="1.5" stroke-linecap="round" stroke-linejoin="round"/>
<path id="Vector_3" d="M4.75 4.17857V3.60714C4.75 2.84938 5.05102 2.12265 5.58683 1.58683C6.12265 1.05102 6.84938 0.75 7.60714 0.75C8.3649 0.75 9.09163 1.05102 9.62745 1.58683C10.1633 2.12265 10.4643 2.84938 10.4643 3.60714V4.17857" stroke="#000529" stroke-width="1.5" stroke-linecap="round" stroke-linejoin="round"/>
<path id="Vector_4" d="M5.89286 7.60881V12.182" stroke="#000529" stroke-width="1.5" stroke-linecap="round" stroke-linejoin="round"/>
<path id="Vector_5" d="M9.32143 7.60881V12.182" stroke="#000529" stroke-width="1.5" stroke-linecap="round" stroke-linejoin="round"/>
</g>
</svg>
