<svg preserveAspectRatio="xMidYMid meet" width="16" height="16" overflow="visible" viewBox="0 0 15.8571 11.2857" fill="none" xmlns="http://www.w3.org/2000/svg">
<g id="input-box--cursor-text-formatting-type-format">
<path id="Vector" d="M8.5 3.35714H14.7857C14.9373 3.35714 15.0826 3.41735 15.1898 3.52451C15.2969 3.63167 15.3571 3.77702 15.3571 3.92857V7.35714C15.3571 7.5087 15.2969 7.65405 15.1898 7.7612C15.0826 7.86837 14.9373 7.92857 14.7857 7.92857H8.5" stroke="white" stroke-linecap="round" stroke-linejoin="round"/>
<path id="Vector_2" d="M2.78571 7.92857H1.07143C0.919877 7.92857 0.774531 7.86837 0.667368 7.7612C0.560203 7.65405 0.5 7.5087 0.5 7.35714V3.92857C0.5 3.77702 0.560203 3.63167 0.667368 3.52451C0.774531 3.41735 0.919877 3.35714 1.07143 3.35714H2.78571" stroke="white" stroke-linecap="round" stroke-linejoin="round"/>
<path id="Vector_3" d="M4.5 0.5H6.78571" stroke="white" stroke-linecap="round" stroke-linejoin="round"/>
<path id="Vector_4" d="M4.5 10.7857H6.78571" stroke="white" stroke-linecap="round" stroke-linejoin="round"/>
<path id="Vector_5" d="M5.64286 0.5V10.7857" stroke="white" stroke-linecap="round" stroke-linejoin="round"/>
</g>
</svg>
