<svg viewBox="0 0 16 16" fill="none" xmlns="http://www.w3.org/2000/svg">
  <path d="M8.33333 12.1667C5.96667 12.1667 4 10.2 4 7.83333V3.16667C4 2.76667 4.26667 2.5 4.66667 2.5C5.06667 2.5 5.33333 2.76667 5.33333 3.16667V7.83333C5.33333 9.83333 6.83333 11.1667 8.33333 11.1667C9.83333 11.1667 11.3333 9.83333 11.3333 7.83333V3.16667C11.3333 2.76667 11.6 2.5 12 2.5C12.4 2.5 12.6667 2.76667 12.6667 3.16667V7.83333C12.6667 10.2 10.7 12.1667 8.33333 12.1667Z" fill="#000529"/>
  <path d="M13.3333 14.6667H2.66667C2.26667 14.6667 2 14.4 2 14C2 13.6 2.26667 13.3333 2.66667 13.3333H13.3333C13.7333 13.3333 14 13.6 14 14C14 14.4 13.7333 14.6667 13.3333 14.6667Z" fill="#000529"/>
</svg>
