<svg preserveAspectRatio="xMidYMid meet" width="16" height="16" overflow="visible" viewBox="0 0 16 16" fill="none" xmlns="http://www.w3.org/2000/svg">
<g id="sticker 1" clip-path="url(#clip0_0_25)">
<path id="Vector" d="M7.97447 0C-2.62206 0.399344 -2.62619 15.6114 7.97447 16C8.74653 15.9995 9.47412 15.6987 10.02 15.1528L15.1272 10.0456C15.6736 9.49922 15.9745 8.77275 15.9745 8C15.9745 3.58016 12.3984 0 7.97447 0ZM9.449 14.398C9.51644 11.7136 11.6876 9.54225 14.3724 9.47453L9.449 14.398ZM5.41409 8.16006L3.67241 6.68875C3.64469 6.66531 3.634 6.62797 3.64525 6.59334C3.65644 6.55884 3.68706 6.53484 3.72322 6.53219L5.99687 6.36553C6.29747 6.34369 6.80544 6.16869 7.03103 5.61438L7.89213 3.50312C7.91878 3.43066 8.03019 3.43069 8.05684 3.50312L8.91781 5.61406C9.03125 5.89275 9.35422 6.32203 9.95181 6.3655L12.2258 6.53219C12.2619 6.53484 12.2925 6.55884 12.3038 6.5935C12.315 6.62794 12.3043 6.66528 12.2766 6.68869L10.5351 8.15981C10.077 8.54625 10.0679 9.08331 10.1399 9.37531L10.3453 10.2113C10.0659 10.4803 9.81397 10.7747 9.59213 11.0914L8.61288 10.484C8.54925 10.4446 7.97012 10.0919 7.3355 10.4843L5.39794 11.6864C5.33109 11.7278 5.24563 11.6675 5.26481 11.5895L5.809 9.37572C5.88122 9.08278 5.87122 8.54566 5.41409 8.16006ZM14.5016 8.53541C13.2614 8.53541 12.1081 8.91416 11.1512 9.562L11.0502 9.15122C11.0272 9.05759 11.0544 8.94831 11.1399 8.87622L12.8817 7.40484C13.2018 7.13434 13.3249 6.70206 13.1954 6.30378C13.066 5.90522 12.7123 5.62787 12.2943 5.59722L10.0201 5.43053C9.9075 5.42234 9.82222 5.34922 9.78603 5.26038L8.92494 3.14909C8.58459 2.30234 7.36422 2.30269 7.02409 3.14909L6.16288 5.26066C6.12609 5.35103 6.03978 5.4225 5.92863 5.43056L3.65466 5.59725C3.23672 5.62791 2.88303 5.90525 2.75366 6.30363C2.62406 6.70209 2.74719 7.13438 3.06737 7.40491L4.80934 8.87647C4.89581 8.94944 4.92141 9.05931 4.89866 9.15162L4.35444 11.3656C4.25419 11.7727 4.40859 12.1949 4.74775 12.4412C5.08944 12.6893 5.53869 12.7024 5.89219 12.4831L7.82913 11.2814C7.91725 11.2269 8.03228 11.2273 8.11928 11.2811L9.11738 11.9002C8.72856 12.6938 8.50991 13.5854 8.50991 14.5271C8.50991 14.8223 8.26972 15.0625 7.9745 15.0625C4.07316 15.0625 0.912 11.9061 0.912 8.00003C1.26306 -1.35147 14.6928 -1.36141 15.037 8.00012C15.037 8.29522 14.7968 8.53541 14.5016 8.53541Z" fill="white"/>
</g>
<defs>
<clipPath id="clip0_0_25">
<rect width="16" height="16" fill="white"/>
</clipPath>
</defs>
</svg>
