<svg preserveAspectRatio="none" width="100%" height="100%" overflow="visible" style="display: block;" viewBox="0 0 12 15.0003" fill="none" xmlns="http://www.w3.org/2000/svg">
<g id="Group">
<path id="Vector" d="M6.72 8.43784H0.96C0.384 8.43784 0 8.06282 0 7.5003V0.937538C0 0.375015 0.384 0 0.96 0H6.72C7.872 0 8.928 0.468769 9.792 1.2188C10.656 2.06258 11.04 3.09387 11.04 4.21892C11.04 5.34396 10.56 6.37526 9.792 7.21904C8.928 7.96907 7.872 8.43784 6.72 8.43784ZM1.92 6.56276H6.72C7.392 6.56276 7.968 6.2815 8.448 5.90649C8.928 5.43772 9.12 4.8752 9.12 4.21892C9.12 3.56264 8.832 3.00012 8.448 2.53135C7.968 2.15634 7.392 1.87508 6.72 1.87508H1.92V6.56276Z" fill="#000529"/>
<path id="Vector_2" d="M7.68 15.0002H0.96C0.384 15.0002 0 14.6252 0 14.0626V7.49988C0 6.93736 0.384 6.56234 0.96 6.56234C1.536 6.56234 1.92 6.93736 1.92 7.49988V13.1251H7.68C8.352 13.1251 8.928 12.8438 9.408 12.4688C9.888 12.0938 10.08 11.4375 10.08 10.7813C10.08 10.125 9.792 9.56246 9.408 9.09369C9.024 8.62492 8.352 8.43742 7.68 8.43742H6.72C6.144 8.43742 5.76 8.0624 5.76 7.49988C5.76 6.93736 6.144 6.56234 6.72 6.56234H7.68C8.832 6.56234 9.888 7.03111 10.752 7.78114C11.616 8.53117 12 9.65621 12 10.7813C12 11.9063 11.52 12.9376 10.752 13.7814C9.888 14.5314 8.832 15.0002 7.68 15.0002Z" fill="#000529"/>
</g>
</svg>
