<svg preserveAspectRatio="none" width="100%" height="100%" overflow="visible" style="display: block;" viewBox="0 0 16 16" fill="none" xmlns="http://www.w3.org/2000/svg">
<g id="italic 1">
<path id="Vector" d="M14.35 1.7C14.35 1.88565 14.2762 2.0637 14.145 2.19498C14.0137 2.32625 13.8356 2.4 13.65 2.4H10.6575L6.92125 13.6H9.45C9.63564 13.6 9.81372 13.6738 9.94497 13.805C10.0762 13.9363 10.15 14.1144 10.15 14.3C10.15 14.4856 10.0762 14.6637 9.94497 14.795C9.81372 14.9262 9.63564 15 9.45 15H2.45C2.26435 15 2.0863 14.9262 1.95502 14.795C1.82375 14.6637 1.75 14.4856 1.75 14.3C1.75 14.1144 1.82375 13.9363 1.95502 13.805C2.0863 13.6738 2.26435 13.6 2.45 13.6H5.4425L9.17875 2.4H6.65C6.46436 2.4 6.28628 2.32625 6.15503 2.19498C6.02378 2.0637 5.95 1.88565 5.95 1.7C5.95 1.51435 6.02378 1.3363 6.15503 1.20502C6.28628 1.07375 6.46436 1 6.65 1H13.65C13.8356 1 14.0137 1.07375 14.145 1.20502C14.2762 1.3363 14.35 1.51435 14.35 1.7Z" fill="#000529"/>
</g>
</svg>
